# xmcd
#
# Track frame offsets:
#	150
#	1172
#	19051
#	38257
#	55033
#	72277
#	75228
#	92160
#	107531
#	128589
#	144761
#	160324
#	162109
#	182683
#	200546
#	222785
#	224144
#	241372
#	260541
#	284029
#	286563
#	298926
#	300279
#	317172
#	329923
#
# Disc length: 4595 seconds
#
# Revision: 1
# Processed by: cddbd v1.5.2PL0 Copyright (c) Steve Scherf et al.
# Submitted via: audiograbber 1.83.01
#
DISCID=6011f119
DTITLE=Irons in the Fire - All Over the Road
DYEAR=2008
DGENRE=Bluegrass
TTITLE0=Lightnin' Road
TTITLE1=Things That Mama Did
TTITLE2=Children Like These
TTITLE3=Dreamers
TTITLE4=The Diagnosis
TTITLE5=A Big O.D. on L.O.V.E.
TTITLE6=Damned Ol' Cowboys
TTITLE7=Old Dirt Roads
TTITLE8=Some of the Best Things
TTITLE9=Memory Lane
TTITLE10=Had It Up to Here
TTITLE11=Prostate Blues
TTITLE12=Six Days on the Road
TTITLE13=Six Days on the Road
TTITLE14=TilI Gain Control
TTITLE15=When the Frost Kills the Kudzu
TTITLE16=When the Frost Kills the Kudzu
TTITLE17=Smokin' Otis and Dr. Maybelle
TTITLE18=Cleveland Ohio Blues
TTITLE19=In Hayesville There Is No Beer
TTITLE20=In Hayesville There Is No Beer
TTITLE21=Cadillac Man
TTITLE22=Cadillac Man
TTITLE23=Two More Bottles of Wine
TTITLE24=Concrete and Greed
EXTD=
EXTT0=
EXTT1=
EXTT2=
EXTT3=
EXTT4=
EXTT5=
EXTT6=
EXTT7=
EXTT8=
EXTT9=
EXTT10=
EXTT11=
EXTT12=
EXTT13=
EXTT14=
EXTT15=
EXTT16=
EXTT17=
EXTT18=
EXTT19=
EXTT20=
EXTT21=
EXTT22=
EXTT23=
EXTT24=
PLAYORDER=
